<?xml version="1.0" ?><!DOCTYPE svg  PUBLIC '-//W3C//DTD SVG 1.1//EN'  'http://www.w3.org/Graphics/SVG/1.1/DTD/svg11.dtd'><svg height="512px" style="enable-background:new 0 0 512 512;" version="1.1" viewBox="0 0 512 512" width="512px" xml:space="preserve" xmlns="http://www.w3.org/2000/svg" xmlns:xlink="http://www.w3.org/1999/xlink"><g id="_x35_86_x2C__battle_x2C__emblem_x2C__viking_x2C__warrior_x2C__swords"><g><path d="M349.535,85.74c-12.957-12.645-28.561-22.581-45.891-28.947h-0.029    l-0.044-0.029h-0.046l-0.237-0.09l-0.029-0.03h-0.046l-0.654-0.237l-0.326-0.119l-0.328-0.119l-0.326-0.119l-0.269-0.09    l-0.074-0.029l-0.328-0.089l-0.326-0.119l-0.328-0.118l-0.326-0.119l-0.105-0.03l-0.223-0.06l-0.327-0.119l-0.342-0.119    l-0.328-0.09l-0.282-0.089l-0.06-0.028l-0.327-0.09l-0.328-0.119l-0.342-0.119l-0.326-0.09l-0.104-0.029l-0.239-0.06l-0.016-0.03    l-0.654-0.178l-0.342-0.119l-0.267-0.06l-0.061-0.03l-0.342-0.088l-1.011-0.298l-0.105-0.03l-1.516-0.416h-0.076l-1.353-0.357    l-0.105-0.029l-0.252-0.061l-1.279-0.327h-0.09l-2.751-0.624l-0.343-0.089c-1.978-0.417-3.927-0.804-5.92-1.132l-0.283-0.029    h-0.073l-0.328-0.06l-0.715-0.118l-0.34-0.061h-0.119l-0.224-0.059l-0.7-0.09l-0.342-0.059l-0.326-0.03h-0.03l-0.357-0.06    l-0.685-0.09l-0.356-0.029l-0.179-0.029l-0.535-0.061l-0.342-0.059l-0.699-0.06h-0.029l-0.328-0.06l-0.356-0.029l-0.358-0.03    l-0.355-0.06h-0.209l-0.134-0.03l-0.357-0.028l-0.356-0.03l-0.358-0.03l-0.342-0.029h-0.058l-0.299-0.029l-0.355-0.03l-0.358-0.03    l-0.356-0.029l-0.269-0.03h-0.089l-0.356-0.03l-0.358-0.029h-0.355l-0.358-0.029h-0.104l-0.253-0.029l-0.728-0.029l-0.358-0.031    l-0.297-0.029h-0.06h-0.357l-0.372-0.029h-0.356l-0.358-0.03h-0.133h-0.223l-0.356-0.03h-0.372h-0.358l-0.326-0.029h-0.046h-0.714    h-0.356l-0.372-0.029h-0.163h-0.209h-0.355h-0.358h-0.372h-0.356h-0.371h-0.358h-0.356h-0.372h-0.192h-0.179l-0.356,0.029h-0.358    h-0.728h-0.03l-0.342,0.029h-0.358h-0.356l-0.356,0.03h-0.239h-0.119l-0.372,0.03h-0.356l-0.358,0.029h-0.372h-0.06l-0.296,0.029    l-0.358,0.031l-0.712,0.029l-0.269,0.029h-0.089l-0.356,0.029h-0.358l-0.356,0.029l-0.358,0.03h-0.104l-0.252,0.03l-0.358,0.029    l-0.356,0.03l-0.356,0.03l-0.298,0.029h-0.06l-0.356,0.029l-0.358,0.03l-0.356,0.03l-0.342,0.028l-0.135,0.03h-0.223l-0.356,0.06    l-0.342,0.03l-0.358,0.029l-0.326,0.06h-0.03l-0.714,0.06l-0.342,0.059l-0.535,0.061l-0.163,0.029l-0.358,0.029l-0.699,0.09    l-0.342,0.06h-0.03l-0.328,0.03l-0.356,0.059l-0.685,0.09l-0.223,0.059h-0.133l-0.342,0.061l-0.7,0.118l-0.342,0.06h-0.074    l-0.268,0.029l-2.795,0.507l-0.089,0.028l-0.625,0.09l-0.358,0.09l-0.342,0.06l-0.237,0.06h-0.119l-0.342,0.089l-1.056,0.209    l-0.044,0.028l-0.298,0.061l-0.356,0.059l-2.441,0.565l0,0l-1.382,0.357l-0.164,0.03l-3.05,0.803l-0.223,0.061l-0.328,0.117    l-0.951,0.269h-0.075l-0.342,0.119l-0.342,0.089l-0.342,0.119l-0.326,0.09l-0.089,0.029l-0.253,0.09l-0.342,0.088l-0.328,0.119    l-0.342,0.09l-0.237,0.089l-0.104,0.03l-0.328,0.089l-0.342,0.12l-0.327,0.117l-0.342,0.09l-0.06,0.03l-0.269,0.089l-0.342,0.119    l-0.327,0.119l-0.342,0.119l-0.195,0.059l-0.133,0.03l-0.326,0.119l-0.328,0.12l-0.327,0.117l-0.342,0.12h-0.016l-0.326,0.119    l-0.328,0.118C196.663,63.07,181,73.037,167.983,85.74c-1.576,1.576-3.078,3.123-4.625,4.76l-0.193,0.178    c-2.887,3.154-5.638,6.426-8.227,9.848c-1.189,1.576-2.335,3.184-3.465,4.79l-0.149,0.237L151.027,106l-0.149,0.207l0,0    l-0.149,0.239l-0.149,0.208l-0.149,0.207l-0.147,0.239l-0.149,0.208l-0.089,0.148l-0.06,0.09l-0.149,0.209l-0.147,0.237    l-0.149,0.237l-0.149,0.208l-0.149,0.209v0.06l-0.134,0.178l-0.432,0.686l-0.149,0.207l-0.088,0.18l-0.045,0.059l-0.698,1.131    l-0.046,0.06l-0.104,0.147c-11.097,18.208-17.523,39.093-18.712,60.424h259.838c-1.19-22.104-7.914-42.751-18.803-60.571    l-0.06-0.09l-0.282-0.476l-0.134-0.209l-0.298-0.475l0,0l-0.149-0.238l-0.134-0.209l-0.148-0.238l-0.134-0.237l-0.149-0.208    l-0.089-0.119l-0.06-0.119l-0.147-0.238l-0.149-0.209l-0.149-0.237l-0.149-0.237l-0.148-0.209l0,0l-0.147-0.238l-0.165-0.237    l-0.147-0.208l-0.149-0.238l-0.163-0.209l-0.06-0.119l-0.09-0.118l-0.148-0.238l-0.149-0.208c-1.19-1.727-2.438-3.451-3.688-5.117    c-3.481-4.582-7.26-8.954-11.26-13.001c-0.149-0.119-0.283-0.268-0.402-0.417L349.535,85.74z M362.148,88.447    c0.744,0.863,1.473,1.725,2.217,2.588l0.089,0.119l0.089,0.09l0.015,0.029l0.105,0.119l0.179,0.237l0.117,0.119l0.09,0.12    l0.09,0.117l0.119,0.12l0.09,0.119l0.089,0.118l0.104,0.149l0.193,0.237l0.105,0.119l0.087,0.119l0.105,0.119l0.09,0.119    l0.104,0.119l0.104,0.119l0.09,0.118l0.09,0.12l0.073,0.089l0.03,0.03l0.089,0.118l0.105,0.119l0.087,0.148l0.09,0.119    l0.105,0.119l0.104,0.118l0.09,0.119l0.09,0.12l0.089,0.118l0.104,0.119l0.015,0.03l0.089,0.089l0.089,0.119l0.09,0.148    l0.09,0.119l0.09,0.119l0.104,0.119l0.104,0.119l0.09,0.119l0.089,0.118l0.149,0.209l0.014,0.03l0.135,0.178l0.148,0.179    l0.148,0.208l0.133,0.178l0.15,0.209l0.133,0.178l0.119,0.18l0.029,0.029l0.15,0.209l0.148,0.178l0.133,0.209l0.15,0.207    l0.133,0.18l0.149,0.207l0.06,0.09l0.09,0.119l0.146,0.179l0.136,0.208L371,99.691l0.148,0.209l0.149,0.179l0.134,0.208    l0.014,0.031l0.119,0.178l0.148,0.207l0.134,0.18l0.149,0.208l0.133,0.208l0.136,0.209l0.415,0.594l0.134,0.209l0.149,0.209    l0.133,0.207l0.283,0.417l0.119,0.208l0.149,0.209l0.134,0.208l0.135,0.208l0.937,1.458l0.134,0.208    c0.744,1.189,1.488,2.381,2.202,3.6c10.501-2.113,19.782-7.734,26.565-15.559c7.155-8.301,11.515-19.1,11.515-30.882l-0.03-1.755    c-3.748,6.456-8.791,12.107-14.756,16.541c-9.119,6.813-20.409,10.859-32.606,10.859H362.148z M388.851,179.096H128.684v19.069    h260.167V179.096z M368.739,344.507l-11.485-6.635c-12.406,21.51-24.811,42.989-37.216,64.499l11.483,6.635    C343.928,387.496,356.333,366.016,368.739,344.507z M330.494,369.646l-46.589-26.924l-17.077,8.687l57.344,29.155L330.494,369.646    z M291.656,338.795l42.482,24.544l6.322-10.948l-33.127-21.568L291.656,338.795z M234.908,306.039l17.165-11.186l-114.969-74.821    l-60.125-0.981l30.91,51.557l101.865,51.795l18.311-11.93l-103.693-59.857c-1.727-0.981-2.336-3.213-1.339-4.969    c0.997-1.725,3.243-2.32,4.968-1.338L234.908,306.039z M160.278,337.872l-11.483,6.635c12.406,21.509,24.812,42.989,37.218,64.499    l11.483-6.635C185.09,380.861,172.685,359.382,160.278,337.872z M389.503,244.309c1.757-1.012,3.987-0.418,4.999,1.338    c0.997,1.727,0.402,3.957-1.338,4.969l-206.14,119.03l6.307,10.948c37.53-19.07,75.045-38.17,112.575-57.239l0.147-0.06    l103.591-52.688l30.911-51.557l-60.126,0.981L260.82,297.859l-0.165,0.117c-16.125,10.503-48.729,31.715-48.7,31.686    c-11.574,6.961-23.503,15.291-34.898,22.729l6.309,10.948L389.503,244.309z M263.155,75.238c-2.009,0-3.66-1.637-3.66-3.63    c0-2.023,1.651-3.659,3.66-3.659c27.236,0,51.959,10.859,70.047,28.471c18.132,17.642,29.616,42.127,30.301,69.289    c0.06,1.992-1.534,3.658-3.541,3.718s-3.688-1.547-3.718-3.54c-0.655-25.168-11.307-47.868-28.129-64.23    C311.35,85.323,288.428,75.238,263.155,75.238z M284.946,33.885c-7.348-4.938-16.392-7.883-26.18-7.883    c-9.803,0-18.847,2.945-26.194,7.883c-5.192,3.512-9.551,8.033-12.734,13.239c3.868-1.131,7.84-2.112,11.857-2.915l0.237-0.061    l0.476-0.089l0.239-0.03l0.476-0.088l0.076-0.03l0.163-0.03l0.238-0.029l0.237-0.06l0.238-0.03l0.223-0.059l0.239-0.031    l0.237-0.029l0.089-0.029l0.298-0.059c2.439-0.418,4.894-0.774,7.377-1.072l0.358-0.029l0.356-0.06h0.03l0.372-0.03l0.372-0.029    l0.372-0.059l0.372-0.03l0.744-0.089l0.386-0.03l0.372-0.03l0.372-0.029h0.014l0.358-0.03l0.372-0.028l0.386-0.03l0.358-0.03    l0.237-0.029h0.149l0.388-0.029l0.37-0.03l0.372-0.03c5.029-0.327,10.175-0.387,15.203-0.148h0.386l0.372,0.029h0.105l0.267,0.029    h0.388l0.387,0.03l0.356,0.03h0.388l0.386,0.029l0.372,0.03l0.372,0.03l0.372,0.029h0.148l0.237,0.029l0.372,0.03l0.388,0.03    l0.356,0.028l0.357,0.03h0.03l0.37,0.029l0.372,0.03l0.388,0.03l0.744,0.089l0.356,0.03l0.388,0.059l0.37,0.029l0.372,0.03h0.016    l0.356,0.06l0.372,0.029c2.484,0.298,4.939,0.654,7.379,1.072l0.296,0.059l0.076,0.029l0.236,0.029l0.239,0.031l0.238,0.059    l0.237,0.03l0.223,0.06l0.238,0.029l0.179,0.03l0.06,0.03l0.476,0.088l0.239,0.03l0.476,0.089l0.238,0.061    c4.015,0.803,7.987,1.784,11.869,2.915C294.512,41.918,290.139,37.396,284.946,33.885z M167.896,392.167l-13.611-23.533    L75.729,399.99l25.719,44.537C117.766,431.646,116.264,432.835,167.896,392.167z M363.234,368.604l-13.596,23.563l66.432,52.36    l25.705-44.537L363.234,368.604z M105.523,469.755c-2.007,0-3.658-1.637-3.658-3.659s1.651-3.659,3.658-3.659h227.663    c2.01,0,3.646,1.637,3.646,3.659s-1.636,3.659-3.646,3.659H105.523z M227.439,485.999c-2.007,0-3.645-1.637-3.645-3.66    s1.637-3.658,3.645-3.658h176.15c2.023,0,3.661,1.635,3.661,3.658s-1.638,3.66-3.661,3.66H227.439z M421.618,485.999    c-2.007,0-3.658-1.637-3.658-3.66s1.651-3.658,3.658-3.658h22.031c2.023,0,3.659,1.635,3.659,3.658s-1.636,3.66-3.659,3.66    H421.618z M68.351,485.611c-2.023,0-3.659-1.636-3.659-3.659c0-2.022,1.635-3.658,3.659-3.658h83.479    c2.009,0,3.661,1.636,3.661,3.658c0,2.023-1.651,3.659-3.661,3.659H68.351z M155.37,88.447h-5.727    c-12.182,0-23.488-4.046-32.605-10.859c-5.966-4.434-10.993-10.085-14.741-16.541l-0.03,1.755    c0,11.782,4.343,22.581,11.513,30.882c6.768,7.824,16.051,13.445,26.553,15.559c1.353-2.261,2.766-4.521,4.24-6.723l0.133-0.209    l0.133-0.209l0.149-0.178l0.416-0.625l0.135-0.208l0.133-0.208l0.149-0.18l0.267-0.416l0.045-0.059l0.104-0.149l0.149-0.179    l0.133-0.209l0.133-0.207l0.149-0.208l0.149-0.179l0.119-0.209h0.03l0.133-0.207l0.134-0.18l0.149-0.207l0.149-0.209l0.149-0.178    l0.133-0.209l0.074-0.119l0.075-0.09l0.134-0.178l0.149-0.209l0.147-0.178l0.298-0.387l0.149-0.208l0.03-0.03l0.12-0.179    l0.087-0.118l0.09-0.119l0.179-0.238l0.104-0.119l0.283-0.387l0.089-0.119l0.03-0.029l0.06-0.09l0.104-0.118l0.105-0.12    l0.177-0.237l0.089-0.119l0.105-0.119l0.104-0.148l0.089-0.119l0.09-0.118l0.074-0.09l0.03-0.029l0.104-0.12l0.089-0.118    l0.089-0.119l0.105-0.119l0.104-0.119l0.089-0.119l0.089-0.119l0.104-0.119l0.104-0.119l0.09-0.118l0.016-0.03l0.088-0.119    l0.105-0.118l0.09-0.119l0.089-0.12l0.104-0.117l0.104-0.12l0.089-0.119l0.104-0.118l0.105-0.119l0.089-0.119l0.06-0.06    l0.044-0.06l0.104-0.119l0.09-0.119l0.119-0.119l0.089-0.119l0.09-0.118l0.117-0.12l0.09-0.119l0.105-0.117l0.609-0.715    l0.09-0.119L155.37,88.447z" style="fill-rule:evenodd;clip-rule:evenodd;"/></g></g><g id="Layer_1"/></svg>
