<?xml version="1.0" ?><!DOCTYPE svg  PUBLIC '-//W3C//DTD SVG 1.1//EN'  'http://www.w3.org/Graphics/SVG/1.1/DTD/svg11.dtd'><svg height="512px" style="enable-background:new 0 0 512 512;" version="1.1" viewBox="0 0 512 512" width="512px" xml:space="preserve" xmlns="http://www.w3.org/2000/svg" xmlns:xlink="http://www.w3.org/1999/xlink"><g id="_x35_33_x2C__Game_x2C__map_x2C__mission_x2C__quest_x2C__role"><g><path d="M64.122,324.559l8.825,2.365v-35.328L64.122,324.559z M428.657,421.561    l10.581-39.449H281.467L428.657,421.561z M485.999,207.592l-15.605-4.174v62.338L485.999,207.592z M445.325,155.355l1.647-3.217    c-10.021-5.184-20.068-10.34-30.092-15.498l-1.674,3.217C425.255,145.041,435.277,150.198,445.325,155.355z M430.066,136.083    l9.703,4.997l22.516-31.607l-19.592-10.102L430.066,136.083z M421.375,150.357c-19.858,34.027-39.744,68.055-59.627,102.055    l-1.17,30.197l24.243-18.396l48.382-107.741C426.611,153.07,428.845,154.213,421.375,150.357z M149.32,247.918    c-1.249,0-2.525,0.824-2.95,1.861c-1.089,2.153,0.584,4.68,2.95,4.68h6.514c1.25,0,2.525-0.798,2.95-1.835    c1.092-2.18-0.584-4.706-2.95-4.706H149.32z M122.444,248.477c-3.934,0.797-2.764,7.231,1.569,6.354    c1.94-0.479,3.615-0.371,5.715-0.371c1.223,0,2.499-0.798,2.925-1.835c1.09-2.18-0.586-4.706-2.925-4.706    C127.229,247.918,124.838,247.865,122.444,248.477z M107.478,272.295c0.798,4.041,7.124,3.111,6.407-1.303    c-0.186-1.035-0.32-1.859-0.32-2.95h-6.538C107.027,269.557,107.213,270.834,107.478,272.295z M130.419,288.166    c1.25,0,2.525-0.798,2.952-1.834c1.09-2.181-0.586-4.705-2.952-4.705c-1.967,0-3.987,0.132-5.901-0.24    c-1.569-0.318-3.083,0.665-3.589,1.914c-0.851,2.074,0.425,4.094,2.392,4.492C125.209,288.299,128.691,288.166,130.419,288.166z     M156.551,288.166c1.25,0,2.525-0.798,2.95-1.834c1.091-2.181-0.584-4.705-2.95-4.705h-6.514c-1.25,0-2.525,0.797-2.95,1.834    c-1.09,2.18,0.584,4.705,2.95,4.705H156.551z M182.683,288.166c1.223,0,2.525-0.798,2.923-1.834    c1.09-2.181-0.558-4.705-2.923-4.705h-6.54c-1.223,0-2.525,0.797-2.923,1.834c-1.091,2.18,0.558,4.705,2.923,4.705H182.683z     M208.815,288.166c1.221,0,2.525-0.798,2.923-1.834c1.09-2.181-0.558-4.705-2.923-4.705h-6.54c-1.223,0-2.525,0.797-2.925,1.834    c-1.09,2.18,0.558,4.705,2.925,4.705H208.815z M234.945,288.166c1.223,0,2.525-0.798,2.925-1.834    c1.089-2.181-0.558-4.705-2.925-4.705h-6.538c-1.223,0-2.527,0.797-2.925,1.834c-1.09,2.18,0.558,4.705,2.925,4.705H234.945z     M261.076,288.166c1.224,0,2.525-0.798,2.925-1.834c1.09-2.181-0.56-4.705-2.925-4.705h-6.54c-1.25,0-2.525,0.797-2.95,1.834    c-1.063,2.18,0.584,4.705,2.95,4.705H261.076z M287.208,288.166c1.223,0,2.499-0.798,2.924-1.834    c1.089-2.181-0.559-4.705-2.924-4.705h-6.54c-1.249,0-2.525,0.797-2.949,1.834c-1.092,2.18,0.584,4.705,2.949,4.705H287.208z     M313.313,288.166c1.249,0,2.525-0.798,2.95-1.834c1.09-2.181-0.584-4.705-2.95-4.705H306.8c-1.249,0-2.525,0.797-2.951,1.834    c-1.09,2.18,0.586,4.705,2.951,4.705H313.313z M339.443,288.166c1.25,0,2.525-0.798,2.951-1.834    c1.09-2.181-0.584-4.705-2.951-4.705h-6.512c-1.249,0-2.525,0.797-2.951,1.834c-1.09,2.18,0.584,4.705,2.951,4.705H339.443z     M181.965,254.459c1.25,0,2.525-0.798,2.95-1.835c1.09-2.18-0.584-4.706-2.95-4.706h-6.514c-1.25,0-2.525,0.824-2.95,1.861    c-1.091,2.153,0.584,4.68,2.95,4.68H181.965z M133.662,220.75c1.25,0,2.527-0.797,2.952-1.834c1.09-2.18-0.584-4.705-2.952-4.705    h-6.512c-1.25,0-2.525,0.824-2.952,1.834c-1.089,2.181,0.584,4.705,2.952,4.705H133.662z M159.794,220.75    c1.25,0,2.525-0.797,2.952-1.834c1.063-2.18-0.586-4.705-2.952-4.705h-6.54c-1.221,0-2.525,0.824-2.923,1.834    c-1.089,2.181,0.558,4.705,2.923,4.705H159.794z M185.926,220.75c1.223,0,2.525-0.797,2.923-1.834    c1.09-2.18-0.558-4.705-2.923-4.705h-6.54c-1.223,0-2.525,0.824-2.923,1.834c-1.09,2.181,0.558,4.705,2.923,4.705H185.926z     M212.058,220.75c1.223,0,2.525-0.797,2.923-1.834c1.09-2.18-0.558-4.705-2.923-4.705h-6.54c-1.223,0-2.525,0.824-2.923,1.834    c-1.091,2.181,0.558,4.705,2.923,4.705H212.058z M236.142,222.664c3.641,2.154,6.938-3.455,3.216-5.688    c-2.232-1.303-4.731-2.234-7.31-2.553c-3.696-0.744-5.556,5.529-0.825,6.459l0.56,0.107    C233.404,221.309,234.68,221.814,236.142,222.664z M241.086,240.954c-2.127,3.562,3.402,7.044,5.689,3.216    c1.409-2.525,1.993-4.572,2.444-7.416c0.639-3.137-4.624-5.637-6.378-1.276l-0.107,0.559c0,0.425-0.265,1.355-0.372,1.808    C242.017,238.986,241.671,239.891,241.086,240.954z M220.963,247.918c-1.223,0-2.525,0.824-2.925,1.861    c-1.089,2.153,0.558,4.68,2.925,4.68h6.538c1.251,0,2.527-0.798,2.952-1.835c1.063-2.18-0.584-4.706-2.952-4.706H220.963z     M194.857,247.918c-1.25,0-2.525,0.824-2.95,1.861c-1.091,2.153,0.584,4.68,2.95,4.68h6.514c1.25,0,2.525-0.798,2.95-1.835    c1.09-2.18-0.584-4.706-2.95-4.706H194.857z M101.019,214.211c-1.249,0-2.525,0.824-2.951,1.834    c-1.09,2.181,0.586,4.705,2.951,4.705h6.514c1.25,0,2.525-0.797,2.95-1.834c1.09-2.18-0.584-4.705-2.95-4.705H101.019z     M100.167,183.295c-1.275-1.25-1.275-3.323-0.026-4.6c1.276-1.275,3.35-1.275,4.6,0l6.592,6.566l6.593-6.566    c1.276-1.275,3.35-1.275,4.599,0c1.276,1.276,1.25,3.35,0,4.6l-6.566,6.566l6.566,6.566c1.25,1.275,1.276,3.348,0,4.625    c-1.25,1.275-3.323,1.275-4.599,0l-6.593-6.566l-6.592,6.566c-1.25,1.275-3.324,1.275-4.6,0c-1.249-1.277-1.249-3.35,0.026-4.625    l6.566-6.566L100.167,183.295z M228.564,147.566c-0.186-1.621-0.317-3.27-0.372-4.917v-0.107l-0.026-0.159v-0.079v-0.08v-0.079    v-0.107v-0.026v-0.053v-0.08v-0.079v-0.08v-0.08v-0.106l-0.026-0.079v-0.08v-0.08v-0.026v-0.054v-0.08v-0.078v-0.107v-0.079    v-0.079v-0.08v-0.08v-0.08c0-0.665,0.026-1.355,0.053-2.021l-113.483-30.411l-10.582,39.449H228.564z M229.761,154.08H99.876    h-0.081h-20.31c0,73.848,0,147.67,0,221.519h59.972l15.019-46.761l3.271,46.761h285.717h0.105h20.31v-42.613l-40.646,8.374    l40.646-27.222c0-53.353,0-106.706,0-160.058h-10.579l-3.669,7.178c-0.823,1.594-2.818,2.205-4.413,1.381l-6.22-3.189    l-48.515,108.035c-0.213,0.558-0.584,1.063-1.09,1.461l-30.385,23.021c-0.585,0.426-1.303,0.691-2.102,0.639    c-1.781-0.053-3.188-1.568-3.109-3.377l1.462-37.668c0-0.584,0.134-1.195,0.453-1.755l55.904-95.726h-71.803    c-2.499,10.208-7.761,19.326-14.966,26.529c-10.234,10.234-24.403,16.588-40.062,16.588c-15.631,0-29.799-6.354-40.061-16.588    C237.551,173.406,232.286,164.288,229.761,154.08z M289.866,141l10.314-15.843l-15.817,10.314L289.866,141z M292.072,148.949    l-32.033,20.868c-1.063,0.691-2.444,0.743-3.562,0.026c-1.515-0.984-1.941-3.004-0.957-4.52l20.789-31.926l0.026-0.054l0,0    l0.053-0.054l0,0l0.026-0.053v-0.027l0.025-0.025l0.028-0.027v-0.025l0.053-0.054l0.026-0.026l0.026-0.054l0,0l0.026-0.053l0,0    l0.055-0.054l0,0l0.026-0.025l0.026-0.055h0.026l0.025-0.053l0,0l0.053-0.026l0.028-0.026v-0.026l0.053-0.054l0.026-0.026    l0.026-0.027l0.026-0.026l0.028-0.025l0.026-0.027l0.026-0.027h0.026l0.025-0.025l0.026-0.027l0.026-0.026l0.028-0.026h0.026    l0.026-0.054h0.026l0.026-0.026l0.026-0.026l0.081-0.026l0,0l0.052-0.053h0.026l0.026-0.027l0.028-0.027h0.026l0.026-0.025h0.026    l0.026-0.027l31.927-20.814c1.516-0.983,3.535-0.531,4.52,0.957c0.718,1.116,0.665,2.525,0,3.563l-20.896,32.06l0,0l-0.053,0.079    l0,0l-0.053,0.053v0.027l-0.026,0.053h-0.026l-0.028,0.054l-0.026,0.026l-0.026,0.026l-0.026,0.027l-0.026,0.052l-0.025,0.027    l-0.026,0.027l-0.028,0.025l-0.026,0.027l-0.026,0.026l-0.026,0.053l-0.026,0.027l-0.026,0.026l-0.028,0.026l-0.026,0.027    l-0.026,0.026l-0.026,0.025l-0.026,0.027l-0.052,0.027l-0.028,0.025l-0.026,0.027l-0.026,0.026l-0.053,0.026v0.026l-0.053,0.027    h-0.028l-0.053,0.053l0,0l-0.052,0.026l-0.026,0.027l-0.055,0.025L292.072,148.949z M269.397,155.94l15.844-10.314l-5.503-5.528    L269.397,155.94z M37.856,400.905c-1.781,0-3.269-1.462-3.269-3.27s1.488-3.27,3.269-3.27h218.17c1.808,0,3.269,1.462,3.269,3.27    s-1.461,3.27-3.269,3.27H37.856z M165.616,414.171c-1.807,0-3.271-1.462-3.271-3.271c0-1.808,1.463-3.269,3.271-3.269h150.967    c1.808,0,3.269,1.461,3.269,3.269c0,1.809-1.461,3.271-3.269,3.271H165.616z M332.028,414.171c-1.81,0-3.271-1.462-3.271-3.271    c0-1.808,1.461-3.269,3.271-3.269h18.874c1.807,0,3.27,1.461,3.27,3.269c0,1.809-1.463,3.271-3.27,3.271H332.028z M29.271,413.772    c-1.808,0-3.269-1.463-3.269-3.271s1.461-3.27,3.269-3.27h71.536c1.808,0,3.27,1.462,3.27,3.27s-1.462,3.271-3.27,3.271H29.271z     M333.969,150.252l0.026-0.08c0.61-3.11,0.931-6.326,0.931-9.623c0-13.85-5.61-26.371-14.702-35.436    c-9.065-9.064-21.585-14.674-35.436-14.674c-13.822,0-26.37,5.609-35.435,14.674c-8.107,8.107-13.477,19.033-14.487,31.156v0.079    l-0.026,0.053v0.08v0.079v0.055v0.079l0,0l-0.026,0.053v0.08v0.054v0.08c-0.054,1.115-0.107,2.125-0.133,3.242v0.08v0.053v0.08    v0.053v0.08v0.08v0.08v0.08v0.079v0.079v0.08v0.08v0.079l0,0v0.08v0.079v0.08v0.08v0.08v0.079v0.079l0.026,0.08v0.027v0.053v0.08    c0.398,13.265,5.901,25.254,14.647,34c9.065,9.064,21.613,14.674,35.435,14.674c13.851,0,26.37-5.609,35.436-14.674    C327.136,169.1,332.028,160.194,333.969,150.252z" style="fill-rule:evenodd;clip-rule:evenodd;"/></g></g><g id="Layer_1"/></svg>
