<?xml version="1.0" ?><svg viewBox="0 0 386.69 386.71" xmlns="http://www.w3.org/2000/svg"><defs><style>.cls-1{fill:none;stroke:#050505;stroke-miterlimit:10;stroke-width:10px;}</style></defs><title/><g data-name="Layer 2" id="Layer_2"><g data-name="Layer 1" id="Layer_1-2"><path class="cls-1" d="M57.36,5H10.58A5.58,5.58,0,0,0,5,10.57V376.13a5.58,5.58,0,0,0,5.58,5.58H278.69"/><path class="cls-1" d="M79,5H376.11a5.58,5.58,0,0,1,5.58,5.57V376.13a5.58,5.58,0,0,1-5.58,5.58H300.36"/><rect class="cls-1" height="322.15" rx="2.5" ry="2.5" width="322.15" x="32.27" y="32.28"/><line class="cls-1" x1="97.17" x2="97.17" y1="32.28" y2="354.43"/><line class="cls-1" x1="161.29" x2="161.29" y1="32.28" y2="354.43"/><line class="cls-1" x1="225.4" x2="225.4" y1="32.28" y2="354.43"/><line class="cls-1" x1="289.52" x2="289.52" y1="32.28" y2="354.43"/><line class="cls-1" x1="354.42" x2="32.27" y1="97.18" y2="97.18"/><line class="cls-1" x1="354.42" x2="32.27" y1="161.3" y2="161.3"/><line class="cls-1" x1="354.42" x2="32.27" y1="225.41" y2="225.41"/><line class="cls-1" x1="354.42" x2="32.27" y1="289.53" y2="289.53"/><circle class="cls-1" cx="64.85" cy="321.08" r="15.26"/><circle class="cls-1" cx="128.6" cy="321.08" r="15.26"/><circle class="cls-1" cx="193.35" cy="321.08" r="15.26"/><circle class="cls-1" cx="257.09" cy="321.08" r="15.26"/><circle class="cls-1" cx="321.84" cy="321.08" r="15.26"/><circle class="cls-1" cx="64.85" cy="257.9" r="15.26"/><circle class="cls-1" cx="128.6" cy="257.9" r="15.26"/><circle class="cls-1" cx="193.35" cy="257.9" r="15.26"/><circle class="cls-1" cx="257.09" cy="257.9" r="15.26"/><circle class="cls-1" cx="321.84" cy="257.9" r="15.26"/><circle class="cls-1" cx="64.85" cy="128.81" r="15.26"/><circle class="cls-1" cx="128.6" cy="128.81" r="15.26"/><circle class="cls-1" cx="193.35" cy="128.81" r="15.26"/><circle class="cls-1" cx="257.09" cy="128.81" r="15.26"/><circle class="cls-1" cx="321.84" cy="128.81" r="15.26"/><circle class="cls-1" cx="64.85" cy="65.63" r="15.26"/><circle class="cls-1" cx="128.6" cy="65.63" r="15.26"/><circle class="cls-1" cx="193.35" cy="65.63" r="15.26"/><circle class="cls-1" cx="257.09" cy="65.63" r="15.26"/><circle class="cls-1" cx="321.84" cy="65.63" r="15.26"/></g></g></svg>