<?xml version="1.0" ?><svg id="Icons" style="enable-background:new 0 0 32 32;" version="1.1" viewBox="0 0 32 32" xml:space="preserve" xmlns="http://www.w3.org/2000/svg" xmlns:xlink="http://www.w3.org/1999/xlink"><style type="text/css">
	.st0{fill:none;stroke:#000000;stroke-width:2;stroke-linecap:round;stroke-linejoin:round;stroke-miterlimit:10;}
</style><g><path d="M17,2H7C4.2,2,2,4.2,2,7v18c0,2.8,2.2,5,5,5h10c2.8,0,5-2.2,5-5V7C22,4.2,19.8,2,17,2z M8,9c0,0.6-0.4,1-1,1S6,9.6,6,9V7   c0-0.6,0.4-1,1-1s1,0.4,1,1V9z M15.3,17.3c-0.4,0.4-1,0.7-1.6,0.7h0c-0.2,0-0.5,0-0.7-0.1V19c0.6,0,1,0.4,1,1s-0.4,1-1,1h-2   c-0.6,0-1-0.4-1-1s0.4-1,1-1v-1.1C10.8,18,10.5,18,10.3,18h0c-0.6,0-1.2-0.2-1.6-0.7c-0.9-0.9-0.9-2.4,0-3.3l2.6-2.7   c0.4-0.4,1.1-0.4,1.4,0l2.6,2.7C16.2,14.9,16.2,16.4,15.3,17.3z M18,25c0,0.6-0.4,1-1,1s-1-0.4-1-1v-2c0-0.6,0.4-1,1-1s1,0.4,1,1   V25z"/></g><path d="M28.5,8.6L24,5.9v19.9l6.2-10.3C31.6,13.1,30.9,10,28.5,8.6z"/></svg>