<?xml version="1.0" ?><svg enable-background="new 0 0 24 24" id="Layer_1" version="1.1" viewBox="0 0 24 24" xml:space="preserve" xmlns="http://www.w3.org/2000/svg" xmlns:xlink="http://www.w3.org/1999/xlink"><g><circle cx="12" cy="12" fill="#303C42" r="2"/><path d="M20.3562241,11.9938354c0.6530914-0.6729736,1.1995621-1.3438721,1.6243382-1.9976196   C21.9871521,9.9963379,21.9926453,10,21.9992981,10c0.5517197,0,0.9999294-0.4487305,0.9999294-1   c0-0.2351074-0.0936832-0.4422607-0.2299652-0.6131592c0.310648-0.9482422,0.2910576-1.7713013-0.10009-2.4346924   c-0.8811626-1.4951782-3.4094887-1.7909546-6.6093979-1.0197754C15.1595678,1.9290771,13.6925688,0,12,0   c-1.6926298,0-3.1596899,1.9292603-4.0598955,4.9328003C7.2251277,4.758606,6.5408497,4.6375122,5.8947158,4.571106   C5.7330451,4.2362671,5.3968873,4,5.0004916,4c-0.390903,0-0.7212629,0.2310791-0.8856802,0.5584106   c-1.3407869,0.125-2.3117881,0.5911865-2.7839839,1.3937378c-0.3593498,0.6088867-0.4257514,1.3461914-0.2001812,2.190918   C1.4469081,9.3232422,2.3369212,10.6589966,3.6377943,12c-1.300873,1.3410034-2.190886,2.6767578-2.507148,3.8569336   c-0.2255701,0.8447266-0.1591685,1.5820313,0.2001812,2.190918c0.5702724,0.9677734,1.8289731,1.4355469,3.5144017,1.4355469   c0.9173551,0,1.9647665-0.1442871,3.0921898-0.4158936c0.12432,0.4160767,0.2618227,0.8111572,0.4092121,1.1898193   C8.1382103,20.4407349,8.0002813,20.7012939,8.0002813,21c0,0.5512695,0.4482107,1,0.9999294,1   c0.0610304,0,0.1141281-0.024353,0.1721678-0.0348511C9.9917793,23.2938843,10.9613762,24,12,24   c1.6926298,0,3.159873-1.9293213,4.0600185-4.9329834c1.128521,0.2720337,2.1766033,0.4163818,3.0947533,0.4163818   c1.6854267-0.0004883,2.944128-0.4677734,3.5144005-1.4355469c0.3593502-0.6088867,0.4257507-1.3461914,0.200182-2.190918   C22.5526028,14.6749268,21.6603317,13.336853,20.3562241,11.9938354z M19.1835938,5.5166016   c1.3271484,0,2.2617188,0.3271484,2.625,0.9433594c0.2328491,0.3961792,0.234375,0.928772,0.031189,1.5724487   C21.3672485,8.1119995,21,8.5054932,21,9c0,0.1724854,0.0554199,0.3269043,0.1325684,0.468689   c-0.3886108,0.5961914-0.8896484,1.2097778-1.4882202,1.8275146c-0.8165283-0.7576904-1.7556152-1.5084229-2.7946167-2.2254028   c-0.114502-1.1325684-0.2930298-2.1958618-0.5283203-3.1695557C17.395813,5.6442871,18.3658447,5.5166016,19.1835938,5.5166016z    M14.0673828,15.4916992c-0.7012329,0.3968506-1.3920288,0.7501831-2.0675049,1.0648193   c-0.675415-0.3146973-1.3660889-0.6679688-2.0672607-1.0648193c-0.6367798-0.3602905-1.2473755-0.7401123-1.8325195-1.1306763   C8.0349731,13.5904541,8,12.7998657,8,12c0-0.8196411,0.0341797-1.6072388,0.0969238-2.3588867   c0.5861206-0.3912964,1.1977539-0.7718506,1.8356934-1.1328125c0.7047119-0.3987427,1.3946533-0.7427979,2.0733032-1.0585938   c0.6862183,0.3202515,1.3760986,0.6707764,2.0614624,1.0585938c0.6379395,0.3609619,1.2495728,0.7415161,1.8356934,1.1328125   C15.9658203,10.3927612,16,11.1803589,16,12c0,0.8174438-0.0339355,1.6031494-0.0963135,2.3529663   C15.3150024,14.7457886,14.7067261,15.1298828,14.0673828,15.4916992z M15.760376,15.6436157   c-0.1055298,0.7832031-0.2439575,1.5144043-0.4075928,2.1932983c-0.68396-0.2023315-1.3995972-0.4505615-2.1439209-0.7536011   c0.4480591-0.2252808,0.8988647-0.4658203,1.350708-0.7214966C14.9693604,16.1299438,15.3690796,15.8893433,15.760376,15.6436157z    M10.7910156,17.083252c-0.7442627,0.3029175-1.4599609,0.5510864-2.1439209,0.7533569   c-0.1650391-0.6925659-0.3010254-1.4258423-0.4041748-2.1920776c0.3897705,0.2443237,0.7869263,0.4849854,1.1975098,0.7172852   C9.8922119,16.6174927,10.3430176,16.8579712,10.7910156,17.083252z M7.0491333,13.6275635   C6.3267822,13.0953369,5.6651001,12.5482788,5.0704956,12c0.5946045-0.5482788,1.2562256-1.0952759,1.9785767-1.6275024   C7.0201416,10.9052124,7,11.4453125,7,12C7,12.5512695,7.0201416,13.0922852,7.0491333,13.6275635z M8.2394409,8.357666   c0.105896-0.7860107,0.2449341-1.5197144,0.4092407-2.2006836c0.6974487,0.208374,1.4160767,0.4624023,2.147583,0.7615356   c-0.4500732,0.2262573-0.9019775,0.4626465-1.355835,0.7196655C9.0286255,7.8711548,8.6303101,8.1126099,8.2394409,8.357666z    M13.2124634,6.9227905c0.7420654-0.3017578,1.4586792-0.5563354,2.1407471-0.7579956   c0.1635132,0.678772,0.3018799,1.4098511,0.4073486,2.1928711c-0.3908691-0.2450562-0.7891846-0.4865112-1.2009888-0.7194824   C14.1122437,7.3850708,13.6624756,7.1488647,13.2124634,6.9227905z M16.9509277,10.3724365   c0.7207031,0.5310059,1.3809204,1.0767212,1.9745483,1.6237793c-0.5942993,0.5491943-1.2553101,1.0924683-1.973999,1.6222534   C16.9801025,13.0886841,17,12.5515137,17,12C17,11.4453125,16.9798584,10.9051514,16.9509277,10.3724365z M12,1   c1.1148071,0,2.3015747,1.5777588,3.0910034,4.1932983C14.1029663,5.4852295,13.0649414,5.8718872,12,6.3479004   c-1.052124-0.4699097-2.0914307-0.8572388-3.0910034-1.1546021C9.6984253,2.5776978,10.8851929,1,12,1z M2.1914063,6.4594727   c0.367981-0.6242676,1.2250366-0.850708,1.9873657-0.9222412C4.357605,5.8092041,4.6505737,6,5,6   c0.336853,0,0.6204224-0.1781616,0.8016968-0.4338379c0.5928955,0.0612183,1.2205811,0.1709595,1.8781738,0.3299561   c-0.2359009,0.9750977-0.414917,2.0401001-0.5296021,3.1746826c-1.0410767,0.7183838-1.9816895,1.4707031-2.7993774,2.2299194   c-1.177124-1.2103882-1.9822998-2.3984985-2.255188-3.4164429C1.9414063,7.3081055,1.9736328,6.8291016,2.1914063,6.4594727z    M2.1914063,17.5400391c-0.2177734-0.3691406-0.25-0.8481445-0.0957031-1.4243164   c0.2728882-1.0179443,1.078064-2.2060547,2.255188-3.4164429c0.817627,0.7592163,1.7583008,1.5114746,2.7992554,2.2297974   c0.1127319,1.1177368,0.2885742,2.1814575,0.5261841,3.1672363C4.859436,18.7688599,2.7767944,18.5341187,2.1914063,17.5400391z    M12,23c-0.694519,0-1.4204712-0.6049194-2.0609741-1.6986694C9.9701538,21.2047119,10,21.1068115,10,21   c0-0.4299927-0.2758179-0.7897949-0.6576538-0.9307251c-0.1594238-0.3938599-0.3036499-0.8198242-0.4367676-1.2661743   C9.895813,18.5107422,10.9324341,18.1312866,12,17.6541138c1.0668335,0.4768066,2.1027222,0.8562012,3.0922241,1.1484375   C14.3027954,21.4205933,13.1153564,23,12,23z M21.8085938,17.5400391c-0.5866089,0.994812-2.6695557,1.2294312-5.4865723,0.5563354   c0.2355347-0.9750977,0.4140625-2.0401001,0.5284424-3.1744385c1.0336914-0.7151489,1.9692993-1.4676514,2.7906494-2.2307129   c1.1813965,1.2131348,1.9896851,2.4042969,2.2631836,3.4244995C22.0585938,16.6918945,22.0263672,17.1708984,21.8085938,17.5400391   z" fill="#303C42"/></g><g/><g/><g/><g/><g/><g/><g/><g/><g/><g/><g/><g/><g/><g/><g/></svg>