<?xml version="1.0" ?><!DOCTYPE svg  PUBLIC '-//W3C//DTD SVG 1.1//EN'  'http://www.w3.org/Graphics/SVG/1.1/DTD/svg11.dtd'><svg height="512px" style="enable-background:new 0 0 512 512;" version="1.1" viewBox="0 0 512 512" width="512px" xml:space="preserve" xmlns="http://www.w3.org/2000/svg" xmlns:xlink="http://www.w3.org/1999/xlink"><g id="_x35_85_x2C__Box_x2C__boxing_x2C__competition_x2C__fight_x2C__gloves"><g><path d="M41.663,145.99v158.969c0,1.546-1.25,2.796-2.795,2.796    s-2.795-1.25-2.795-2.796V145.99h-10.07v196.132h48.027V145.99H41.663z M401.286,157.969l3.91-21.003l-53.027-3.591l-13.409-49.3    l-49.302,19.774l-3.25-3.75l-30.229-34.867l-35.844,39.231l-46.892-20.253l-15.273,50.869l-51.074,2.09l1.409,8.82h69.393    c23.889,0,45.846,8.659,62.915,23.002l0.16,0.113c16.819,14.184,28.843,33.936,33.184,56.324    c-4.567,3.295-8.863,6.955-12.841,10.933c-14.184,14.159-24.275,32.366-28.411,52.709l-0.137,0.772    c-0.205,1.023-0.386,2.046-0.568,3.092l-0.114,0.772l-0.022,0.136l-0.09,0.638l-0.091,0.636l-0.023,0.137l-0.114,0.795    l-0.045,0.364l-0.046,0.409l-0.091,0.795l-0.022,0.091l-0.067,0.683l-0.068,0.613l-0.023,0.182l-0.068,0.796l-0.045,0.341    l-0.023,0.432l-0.068,0.795l-0.023,0.068l-0.045,0.729l-0.046,0.591v0.204l-0.045,0.796l-0.021,0.317l-0.023,0.5l-0.023,0.797    l-0.022,0.022l-0.023,0.772v0.568l-0.023,0.227v0.818v0.273l-0.023,0.523v0.816v0.138v0.136v0.16v0.271v0.137v0.273v0.158    l0.023,0.068v0.068v0.137v0.136v0.137v0.136v0.16v0.136v0.136l0.023,0.137v0.137l0,0v0.137v0.158v0.138v0.136l0.023,0.137v0.137    v0.135v0.16v0.137v0.068l0.022,0.068v0.271v0.137l0.023,0.159v0.137v0.136l0.023,0.137v0.137l0.021,0.432v0.137l0.023,0.136v0.136    l0.045,0.706v0.136l0.023,0.137v0.137c0.205,3.021,0.545,6,1,8.932c-7.659,5.137-16.093,9.229-25.07,12.023    c-9.206,2.887-19.002,4.456-29.14,4.456h-37.594c-1.523,0-2.772,1.25-2.772,2.795c0,0.614,0.181,1.16,0.5,1.614l17.434,30.207    c0.317,0.523,0.589,1.068,0.863,1.613l3.955,0.273l13.41,49.3l49.3-19.774l33.481,38.617l35.867-39.23l46.867,20.274l6.07-20.184    h-10.773c-26.959,0-51.483-11.023-69.258-28.798c-13.955-13.956-23.774-32.094-27.321-52.301v-0.068l-0.068-0.387l-0.023-0.113    l-0.023-0.137l-0.022-0.136l-0.021-0.022v-0.114l-0.023-0.113l-0.023-0.137l-0.023-0.136l-0.022-0.114l-0.023-0.136l-0.023-0.137    l-0.023-0.137l-0.022-0.113v-0.091l-0.023-0.046v-0.136l-0.023-0.114l-0.045-0.273l-0.023-0.135l-0.023-0.138l-0.022-0.112    l-0.023-0.25v-0.023l-0.023-0.137l-0.022-0.113l-0.023-0.273l-0.023-0.136l-0.044-0.25v-0.137l-0.022-0.136v-0.023l-0.023-0.113    L237,321.779v-0.137l-0.023-0.137l-0.022-0.136v-0.137l-0.023-0.113l-0.023-0.272l-0.022-0.068v-0.068l-0.023-0.137v-0.137    l-0.023-0.113l-0.023-0.137v-0.137l-0.022-0.135l-0.023-0.138v-0.136l-0.023-0.092v-0.045v-0.113l-0.022-0.137l-0.023-0.137    v-0.137l-0.023-0.136v-0.136l-0.023-0.114v-0.136l-0.022-0.137v-0.137l-0.021-0.137v-0.136l-0.023-0.114v-0.136l-0.023-0.137    v-0.136l-0.023-0.113v-0.137v-0.068l-0.022-0.068v-0.113l-0.023-0.409l-0.023-0.138l-0.022-0.385v-0.115v-0.021l-0.023-0.114    v-0.272l-0.023-0.137v-0.25l-0.023-0.137v-0.136v-0.137v-0.045l-0.022-0.091v-0.114v-0.136v-0.137l-0.023-0.137v-0.136v-0.25    l-0.023-0.137v-0.113v-0.022v-0.137v-0.137l-0.023-0.136v-0.138v-0.112v-0.272v-0.138l-0.022-0.136v-0.023v-0.113v-0.137v-0.136    v-0.137v-0.113v-0.137v-0.136l-0.023-0.137v-0.137v-0.091v-0.046v-0.136v-0.137v-0.136v-0.137v-0.137v-0.136v-0.114v-0.136v-0.138    v-0.771v-0.5l0.023-0.273v-0.75v-0.227l0.045-1.25v-0.046l0.046-0.751l0.022-0.454v-0.318l0.046-0.749l0.023-0.183l0.022-0.567    l0.068-0.684v-0.066l0.046-0.75l0.044-0.433l0.022-0.318l0.091-0.75v-0.159l0.068-0.591l0.069-0.636    c0.091-0.773,0.182-1.547,0.294-2.342l0.023-0.113l0.091-0.614l0.091-0.591l0.022-0.137l0.114-0.75l0.046-0.318l0.203-1.136    l0.023-0.068c2.864-16.001,9.66-30.685,19.32-43.005l0.114-0.158c0.726-0.909,1.454-1.818,2.227-2.705l0.022-0.023l0.455-0.545    l0.296-0.363l0.181-0.182l0.5-0.568l0.114-0.137l0.363-0.409l0.411-0.454l0.089-0.091l0.5-0.546l0.206-0.227l0.294-0.319    l0.523-0.546l0,0l0.5-0.521l0.317-0.318l0.206-0.228l0.522-0.522l0.091-0.092l0.432-0.432l0.409-0.408l0.114-0.115l0.546-0.5    l0.203-0.204l0.319-0.317l0.523-0.478l0.021-0.022l0.546-0.5l0.297-0.273l0.249-0.227l0.546-0.5l0.091-0.068l0.478-0.41    l0.409-0.363l0.137-0.137l0.568-0.477l0.181-0.159l0.386-0.318l0.523-0.432l0.045-0.046l0.569-0.454l0.591-0.478l0.568-0.454    l0.068-0.046l0.521-0.41l0.411-0.316l0.181-0.138l0.591-0.454l0.16-0.137l0.432-0.295l0.522-0.387l0.068-0.068l0.612-0.432    l0.274-0.205l0.317-0.227l0.614-0.432l0.046-0.023l0,0l0.045-0.023l0.046-0.021l0.022-0.045    c15.819-10.956,35.002-17.389,55.574-17.389h37.594c1.522,0,2.771-1.25,2.771-2.796c0-0.591-0.181-1.159-0.5-1.613l-17.434-30.208    c-3.295-5.705-3.953-12.251-2.363-18.184c1.592-5.955,5.455-11.297,11.16-14.592l0.114-0.068    c5.682-3.25,12.206-3.887,18.116-2.295c5.953,1.59,11.295,5.432,14.59,11.159L401.286,157.969z M261.387,50.209l32.095,37.025    l54.642-21.911l14.91,54.823l58.71,3.955l-9.729,52.437l19.365,33.571c0.251,0.432,0.592,0.75,1.001,1v196.519h-72.758    l-11.75,39.186l-52.187-22.547l-39.708,43.436l-37.209-42.936l-54.641,21.933l-11.478-42.298    c-5.819,6.75-15.184,9.978-24.412,7.499c-5.954-1.591-11.295-5.455-14.592-11.16l-33.024-57.209c-0.251-0.432-0.591-0.773-1-1    V145.99h14.593l-3.501-22.094l56.756-2.318l16.933-56.391l52.187,22.547l39.686-43.436L261.387,50.209z M437.973,211.496v196.132    h27.229V250.613c0-1.546,1.274-2.796,2.797-2.796c1.545,0,2.796,1.25,2.796,2.796v157.015h15.205V211.496H437.973z" style="fill-rule:evenodd;clip-rule:evenodd;"/></g></g><g id="Layer_1"/></svg>
