<?xml version="1.0" ?><svg viewBox="0 0 512 512" xmlns="http://www.w3.org/2000/svg"><g id="Grim_reaper"><circle cx="299.7479" cy="271.3121" r="24.0625"/><path d="M460.73,402.75a65.2291,65.2291,0,0,0-37.2217-53.6044L386.2438,331.6l20.14-41.5956a83.4645,83.4645,0,0,0,0-72.7664L352.8759,106.7294c-39.2041-80.9727-154.5477-80.9717-193.7561.0011L105.6115,217.2484a83.47,83.47,0,0,0,0,72.7557L125.7562,331.6l-37.26,17.546A65.2506,65.2506,0,0,0,51.27,402.7565l-4.0845,49.0158A13.1369,13.1369,0,0,0,60.2764,466H451.7236a13.136,13.136,0,0,0,13.0908-14.2262Zm-125.982-84.0885v28.2389c0,12.6956-8.5834,24.3327-21.05,26.7242a26.2923,26.2923,0,0,1-28.2922-13.2574,3.5149,3.5149,0,0,0-6.28-.0577,26.2615,26.2615,0,0,1-46.2494,0,3.5183,3.5183,0,0,0-6.2848.0577,26.2834,26.2834,0,0,1-28.2879,13.2574c-12.4671-2.3915-21.0547-14.0286-21.0547-26.7242V318.6638a108.9123,108.9123,0,0,1-28.9417-94.791A35.1874,35.1874,0,0,1,182.8747,194.75H329.121A35.1839,35.1839,0,0,1,363.69,223.8728a108.9067,108.9067,0,0,1-28.9416,94.7888Z"/><circle cx="212.2479" cy="271.3121" r="24.0625"/></g></svg>
