<?xml version="1.0" ?><svg id="Icons" style="enable-background:new 0 0 32 32;" version="1.1" viewBox="0 0 32 32" xml:space="preserve" xmlns="http://www.w3.org/2000/svg" xmlns:xlink="http://www.w3.org/1999/xlink"><style type="text/css">
	.st0{fill:none;stroke:#000000;stroke-width:2;stroke-linecap:round;stroke-linejoin:round;stroke-miterlimit:10;}
</style><g><path d="M25,2H7C5.3,2,4,3.3,4,5v22c0,1.7,1.3,3,3,3h18c1.7,0,3-1.3,3-3V5C28,3.3,26.7,2,25,2z M17,27h-2c-0.6,0-1-0.4-1-1   s0.4-1,1-1h2c0.6,0,1,0.4,1,1S17.6,27,17,27z M26,22H6V5c0-0.6,0.4-1,1-1h18c0.6,0,1,0.4,1,1V22z"/><path d="M11,17.2c0.3,2.1,2.2,3.8,4.4,3.8h1.2c2.3,0,4.1-1.7,4.4-3.8c2-0.6,3-2,3-4.3C24,8.5,20.4,5,16,5s-8,3.5-8,7.9   C8,15.2,9,16.6,11,17.2z M19.1,16.6c0,1.3-1.1,2.4-2.5,2.4h-1.2c-1.4,0-2.5-1.1-2.5-2.4v-1c2-0.3,4.2-0.3,6.2,0V16.6z"/></g></svg>