<?xml version="1.0" ?><svg enable-background="new 0 0 24 24" id="Layer_1" version="1.1" viewBox="0 0 24 24" xml:space="preserve" xmlns="http://www.w3.org/2000/svg" xmlns:xlink="http://www.w3.org/1999/xlink"><g><path d="M23.5,0h-23C0.2236328,0,0,0.2236328,0,0.5v8C0,8.7763672,0.2236328,9,0.5,9H3v5.5   C3,14.7763672,3.2236328,15,3.5,15h1C4.7763672,15,5,14.7763672,5,14.5V13h6.5c0.2763672,0,0.5-0.2236328,0.5-0.5v-1   c0-0.2763672-0.2236328-0.5-0.5-0.5H5V9h1.5C6.7763672,9,7,8.7763672,7,8.5v-2C7,6.2236328,6.7763672,6,6.5,6h-1   C5.2236328,6,5,6.2236328,5,6.5V7H2V2h14v0.5C16,2.7763672,16.2236328,3,16.5,3h1C17.7763672,3,18,2.7763672,18,2.5V2h4v18.5   c0,0.2763672,0.2236328,0.5,0.5,0.5h1c0.2763672,0,0.5-0.2236328,0.5-0.5v-20C24,0.2236328,23.7763672,0,23.5,0z" fill="#303C42"/><path d="M23.5,22H21V3.5C21,3.2236328,20.7763672,3,20.5,3h-1C19.2236328,3,19,3.2236328,19,3.5V4h-3.5   C15.2236328,4,15,4.2236328,15,4.5v1C15,5.7763672,15.2236328,6,15.5,6H19v16H2v-4h4.5h1C7.7763672,18,8,17.7763672,8,17.5V16h1v3   H4.5C4.2236328,19,4,19.2236328,4,19.5v1C4,20.7763672,4.2236328,21,4.5,21h7c0.2763672,0,0.5-0.2236328,0.5-0.5v-1   c0-0.2763672-0.2236328-0.5-0.5-0.5H11v-4.5c0-0.2763672-0.2236328-0.5-0.5-0.5h-4C6.2236328,14,6,14.2236328,6,14.5V16H2v-4.5   C2,11.2236328,1.7763672,11,1.5,11h-1C0.2236328,11,0,11.2236328,0,11.5v12C0,23.7763672,0.2236328,24,0.5,24h23   c0.2763672,0,0.5-0.2236328,0.5-0.5v-1C24,22.2236328,23.7763672,22,23.5,22z" fill="#303C42"/><path d="M12.5,16c-0.2763672,0-0.5,0.2236328-0.5,0.5v1c0,0.2763672,0.2236328,0.5,0.5,0.5H14v2.5   c0,0.2763672,0.2236328,0.5,0.5,0.5h3c0.2763672,0,0.5-0.2236328,0.5-0.5v-1c0-0.2763672-0.2236328-0.5-0.5-0.5H16v-9h1.5   c0.2763672,0,0.5-0.2236328,0.5-0.5v-1C18,8.2236328,17.7763672,8,17.5,8H10V5h1.5C11.7763672,5,12,4.7763672,12,4.5v-1   C12,3.2236328,11.7763672,3,11.5,3h-8C3.2236328,3,3,3.2236328,3,3.5v2C3,5.7763672,3.2236328,6,3.5,6h1   C4.7763672,6,5,5.7763672,5,5.5V5h3v4.5C8,9.7763672,8.2236328,10,8.5,10H13v6H12.5z" fill="#303C42"/></g><g/><g/><g/><g/><g/><g/><g/><g/><g/><g/><g/><g/><g/><g/><g/></svg>