<?xml version="1.0" ?><svg style="enable-background:new 0 0 32 32;" version="1.1" viewBox="0 0 32 32" xml:space="preserve" xmlns="http://www.w3.org/2000/svg" xmlns:xlink="http://www.w3.org/1999/xlink"><style type="text/css">
	.st0{fill:#B9F3F8;}
	.st1{fill:#55C1FA;}
	.st2{fill:#FBC34E;}
	.st3{opacity:0.05;}
	.st4{fill:#FFFFFF;}
	.st5{fill:#7A442A;}
	.st6{fill:#C77C58;}
	.st7{fill:#E4EDF2;}
	.st8{fill:#F25949;}
	.st9{fill:#FA9B55;}
	.st10{fill:#E5A533;}
	.st11{fill:#6FA7AB;}
	.st12{fill:#20A56C;}
	.st13{fill:#F2C09E;}
	.st14{fill:#F4E8D0;}
	.st15{fill:#F2AB38;}
	.st16{fill:#393B3D;}
	.st17{fill:#ACE4E5;}
	.st18{fill:#659899;}
	.st19{fill:#E3FAFC;}
	.st20{fill:#DDF1F2;}
	.st21{fill:#16F293;}
	.st22{fill:#5C3320;}
	.st23{fill:#AD410D;}
	.st24{fill:#8B9CA5;}
	.st25{fill:#B26C50;}
	.st26{fill:#DAE1E5;}
	.st27{fill:#425158;}
	.st28{fill:#829299;}
	.st29{fill:#A5795C;}
	.st30{fill:#7A7468;}
	.st31{fill:#7B3ABF;}
	.st32{fill:#B564FF;}
	.st33{fill:#2B617D;}
</style><g id="Magnifier"/><g id="Gear"/><g id="Home"/><g id="Shield"/><g id="Star"/><g id="Flash"/><g id="Heart"/><g id="Hearts"/><g id="Shopping_Bag"/><g id="Token"/><g id="Warning"/><g id="Warning_B"/><g id="Chat"/><g id="Diamond"/><g id="Hanger"/><g id="Warning_C"/><g id="Potion"/><g id="Hourglass"/><g id="Trophy"/><g id="Bomb"/><g id="Gem"/><g id="Spell_Book"/><g id="User"/><g id="Users"/><g id="Treasure_Chest"/><g id="Treasure_Chest_Open"/><g id="Sack"/><g id="Fishing_Pin"/><g id="Sword"/><g id="Sword_And_Shield"/><g id="Backpack"/><g id="Key"/><g id="Meat"/><g id="Skull"><g><path class="st7" d="M10.175,21.491c-0.09-0.315-0.257-0.553-0.497-0.737l-0.29-0.237c-0.036-0.031-0.065-0.065-0.1-0.096    l-2.68,2.688c-1.056-1.056-2.758-1.056-3.824,0c-1.045,1.056-1.045,2.757,0,3.813c0.442,0.431,0.969,0.689,1.53,0.765    c0.075,0.56,0.334,1.088,0.765,1.53c1.056,1.045,2.757,1.045,3.824,0c1.045-1.056,1.045-2.768,0-3.824l1.314-1.32v-2.299    C10.216,21.671,10.201,21.57,10.175,21.491z"/><path class="st7" d="M25.393,23.109l-2.676-2.684c-0.019,0.017-0.035,0.035-0.053,0.051l-0.336,0.273    c-0.245,0.188-0.411,0.427-0.486,0.692c-0.042,0.128-0.056,0.229-0.056,0.332v2.299l1.314,1.32c-1.045,1.056-1.045,2.768,0,3.824    c1.066,1.045,2.768,1.045,3.824,0c0.431-0.442,0.689-0.969,0.765-1.53c0.56-0.075,1.088-0.334,1.53-0.765    c1.045-1.056,1.045-2.758,0-3.813C28.15,22.053,26.448,22.053,25.393,23.109z"/><path class="st7" d="M24.504,9.78l0.889-0.889c1.056,1.056,2.758,1.056,3.824,0c1.045-1.056,1.045-2.757,0-3.813    c-0.442-0.431-0.969-0.689-1.53-0.765c-0.075-0.56-0.334-1.088-0.765-1.53c-1.056-1.045-2.757-1.045-3.824,0    c-1.045,1.056-1.045,2.768,0,3.824h0.011l-0.744,0.744C23.236,8.04,23.952,8.858,24.504,9.78z"/><path class="st7" d="M9.635,7.352L8.902,6.618V6.607c1.045-1.056,1.045-2.768,0-3.824c-1.066-1.045-2.768-1.045-3.824,0    c-0.431,0.442-0.689,0.969-0.765,1.53c-0.56,0.075-1.088,0.334-1.53,0.765c-1.045,1.056-1.045,2.757,0,3.813    c1.066,1.056,2.768,1.056,3.824,0L7.496,9.78C8.046,8.861,8.762,8.044,9.635,7.352z"/><path class="st26" d="M21.841,21.441c0.075-0.265,0.241-0.504,0.486-0.692l0.336-0.273c0.019-0.016,0.035-0.035,0.053-0.051    c1.926-1.699,2.988-3.966,2.988-6.396c0-1.407-0.349-2.75-1.039-3.989c-0.049-0.09-0.11-0.173-0.162-0.26    c-0.552-0.922-1.268-1.739-2.139-2.428c-0.036-0.028-0.067-0.06-0.103-0.087C20.528,5.917,18.304,5.175,16,5.175    s-4.528,0.742-6.258,2.086C9.705,7.29,9.672,7.323,9.635,7.352C8.762,8.044,8.046,8.861,7.496,9.78    c-0.052,0.087-0.111,0.169-0.16,0.257c-0.691,1.24-1.041,2.583-1.041,3.992c0,2.41,1.048,4.659,2.992,6.392    c0.035,0.031,0.065,0.065,0.1,0.096l0.29,0.237c0.24,0.184,0.407,0.423,0.497,0.737c0.026,0.079,0.041,0.18,0.041,0.283v2.299    v0.125c0,1.448,1.189,2.628,2.65,2.628h6.269c1.461,0,2.65-1.179,2.65-2.628v-0.125v-2.299    C21.784,21.671,21.799,21.57,21.841,21.441z M10.91,16.743c-0.21,0.209-0.485,0.313-0.759,0.313c-0.277,0-0.553-0.106-0.764-0.318    c-0.42-0.422-0.418-1.103,0.004-1.523l1.162-1.159l-1.164-1.161c-0.421-0.421-0.421-1.102,0-1.523    c0.421-0.421,1.102-0.421,1.523,0l1.167,1.163l1.167-1.163c0.421-0.421,1.102-0.421,1.523,0c0.421,0.421,0.421,1.102,0,1.523    l-1.164,1.161l1.162,1.159c0.422,0.42,0.424,1.101,0.004,1.523c-0.21,0.211-0.487,0.318-0.764,0.318    c-0.275,0-0.55-0.104-0.759-0.313l-1.169-1.165L10.91,16.743z M16.011,17.314h0.011c0.595,0,1.077,0.482,1.077,1.077    s-0.482,1.077-1.077,1.077c-0.595,0-1.082-0.482-1.082-1.077S15.416,17.314,16.011,17.314z M17.233,15.215l1.162-1.159    l-1.164-1.161c-0.421-0.421-0.421-1.102,0-1.523c0.421-0.421,1.102-0.421,1.523,0l1.167,1.163l1.167-1.163    c0.421-0.421,1.102-0.421,1.523,0c0.421,0.421,0.421,1.102,0,1.523l-1.164,1.161l1.162,1.159c0.422,0.42,0.424,1.101,0.004,1.523    c-0.21,0.211-0.487,0.318-0.764,0.318c-0.275,0-0.55-0.104-0.759-0.313l-1.169-1.165l-1.169,1.165    c-0.21,0.209-0.485,0.313-0.759,0.313c-0.277,0-0.553-0.106-0.764-0.318C16.809,16.317,16.812,15.635,17.233,15.215z     M10.168,20.827c0.178-0.568,0.783-0.885,1.35-0.706c0.583,0.182,1.199,0.325,1.938,0.45c1.679,0.264,3.38,0.266,5.116-0.002    c0.728-0.124,1.339-0.266,1.907-0.447c0.563-0.182,1.172,0.133,1.353,0.701c0.18,0.567-0.134,1.173-0.701,1.353    c-0.665,0.211-1.369,0.377-2.214,0.521c-1.974,0.304-3.849,0.306-5.808,0.002c-0.85-0.144-1.556-0.309-2.234-0.522    C10.307,22,9.991,21.395,10.168,20.827z"/><path class="st24" d="M10.875,22.177c0.677,0.212,1.383,0.378,2.234,0.522c1.959,0.304,3.834,0.302,5.808-0.002    c0.845-0.144,1.548-0.309,2.214-0.521c0.567-0.18,0.88-0.786,0.701-1.353c-0.18-0.568-0.789-0.883-1.353-0.701    c-0.568,0.181-1.179,0.323-1.907,0.447c-1.736,0.268-3.437,0.266-5.116,0.002c-0.739-0.125-1.355-0.268-1.938-0.45    c-0.566-0.179-1.172,0.138-1.35,0.706C9.991,21.395,10.307,22,10.875,22.177z"/><path class="st24" d="M13.248,16.743c0.21,0.209,0.485,0.313,0.759,0.313c0.277,0,0.553-0.106,0.764-0.318    c0.42-0.422,0.418-1.103-0.004-1.523l-1.162-1.159l1.164-1.161c0.421-0.421,0.421-1.102,0-1.523c-0.421-0.421-1.102-0.421-1.523,0    l-1.167,1.163l-1.167-1.163c-0.421-0.421-1.102-0.421-1.523,0c-0.421,0.421-0.421,1.102,0,1.523l1.164,1.161l-1.162,1.159    c-0.422,0.42-0.424,1.101-0.004,1.523c0.21,0.211,0.487,0.318,0.764,0.318c0.275,0,0.55-0.104,0.759-0.313l1.169-1.165    L13.248,16.743z"/><path class="st24" d="M17.993,17.056c0.275,0,0.55-0.104,0.759-0.313l1.169-1.165l1.169,1.165c0.21,0.209,0.485,0.313,0.759,0.313    c0.277,0,0.553-0.106,0.764-0.318c0.42-0.422,0.418-1.103-0.004-1.523l-1.162-1.159l1.164-1.161c0.421-0.421,0.421-1.102,0-1.523    c-0.421-0.421-1.102-0.421-1.523,0l-1.167,1.163l-1.167-1.163c-0.421-0.421-1.102-0.421-1.523,0c-0.421,0.421-0.421,1.102,0,1.523    l1.164,1.161l-1.162,1.159c-0.422,0.42-0.424,1.101-0.004,1.523C17.44,16.95,17.716,17.056,17.993,17.056z"/><path class="st24" d="M16.022,19.468c0.595,0,1.077-0.482,1.077-1.077s-0.482-1.077-1.077-1.077h-0.011    c-0.595,0-1.071,0.482-1.071,1.077S15.427,19.468,16.022,19.468z"/></g></g><g id="Store"/><g id="Helmet"/><g id="Anvil"/><g id="Axe"/><g id="Spear"/><g id="Food"/><g id="Bow"/><g id="Scroll"/><g id="Armor"/><g id="Hat"/><g id="Wand"/><g id="Map"/><g id="Mushroom"/><g id="Feather"/><g id="Wings"/><g id="Fish"/></svg>