<?xml version="1.0" ?><svg data-name="Слой 1" id="Слой_1" viewBox="0 0 128 128" xmlns="http://www.w3.org/2000/svg"><title/><path d="M126,94H115.67a5.94,5.94,0,0,0,.33-1.94V27.94A6,6,0,0,0,110.06,22H17.94A6,6,0,0,0,12,27.94V92.06A5.94,5.94,0,0,0,12.33,94H2a2,2,0,0,0-2,2v.5C0,101,3.63,106,8.5,106h111c4.87,0,8.5-5,8.5-9.5V96A2,2,0,0,0,126,94ZM16,92.06V27.94A1.94,1.94,0,0,1,17.94,26h92.12A1.94,1.94,0,0,1,112,27.94V92.06A1.94,1.94,0,0,1,110.06,94H17.94A1.94,1.94,0,0,1,16,92.06ZM119.5,102H8.5c-1.95,0-3.67-2-4.27-4H123.77C123.17,100.05,121.45,102,119.5,102Z"/><path d="M84,70.15s-5.27-2.4-5.27-7.63a8.24,8.24,0,0,1,4-6.85,2,2,0,0,0,.73-2.86A15.22,15.22,0,0,0,81,50c-2.4-2-6.6-2.59-8.7-2.59a18.32,18.32,0,0,0-5.89,1.53,18.75,18.75,0,0,1-1.93.68c-.29-.07-.92-.29-1.45-.47C60.53,48.27,56.76,47,53.25,48,44.43,50.68,43,59.24,42.83,62.8c-.3,5.63,4.11,14.91,5.5,17l.29.44c1.55,2.31,3.66,5.46,7.73,5.78l.74,0A13.48,13.48,0,0,0,62,84.91a9.1,9.1,0,0,1,3-.76,9.51,9.51,0,0,1,3.19.77A14.13,14.13,0,0,0,73.07,86c3.39,0,5.72-2.91,7.26-4.83.34-.43.66-.83.87-1,1.49-1.49,3.32-6,3.85-7.41A2,2,0,0,0,84,70.15Zm-5.61,7.13a16.63,16.63,0,0,0-1.17,1.37C76.15,80,74.54,82,73.07,82a10.14,10.14,0,0,1-3.55-.83,13,13,0,0,0-4.54-1,12.7,12.7,0,0,0-4.41,1,9,9,0,0,1-3.91.82c-2-.15-3.16-1.69-4.71-4l-.31-.46c-1.33-2-5-10.34-4.81-14.49C47,60.3,48,53.78,54.41,51.85a5.51,5.51,0,0,1,1.64-.23,18.22,18.22,0,0,1,5.65,1.3,9,9,0,0,0,2.76.71,10.61,10.61,0,0,0,3.37-1,16.11,16.11,0,0,1,4.46-1.27c2,0,4.9.61,6.1,1.64.19.16.37.33.54.5a11.79,11.79,0,0,0-4.21,9c0,5.53,3.7,8.83,6,10.32A21.74,21.74,0,0,1,78.38,77.28Z"/><path d="M64.09,46.65s.23,0,.54,0a9.7,9.7,0,0,0,7.74-4.14,11.45,11.45,0,0,0,2.49-7.76,2,2,0,0,0-.75-1.34A2,2,0,0,0,72.63,33a13.82,13.82,0,0,0-7.32,3.56c-3.13,3.13-3,8-3,8.16A2,2,0,0,0,64.09,46.65Zm4-7.25a8.08,8.08,0,0,1,2.29-1.57,9.52,9.52,0,0,1-1.26,2.3,6.51,6.51,0,0,1-2.54,2.09A6.19,6.19,0,0,1,68.14,39.4Z"/></svg>