<?xml version="1.0" ?><svg data-name="Слой 1" id="Слой_1" viewBox="0 0 128 128" xmlns="http://www.w3.org/2000/svg"><title/><path d="M122,8H6a6,6,0,0,0-6,6V98a6,6,0,0,0,6,6H62v12H31a2,2,0,0,0,0,4H97a2,2,0,0,0,0-4H66V104h56a6,6,0,0,0,6-6V14A6,6,0,0,0,122,8ZM6,12H122a2,2,0,0,1,2,2V24H4V14A2,2,0,0,1,6,12ZM122,100H6a2,2,0,0,1-2-2V28H124V98A2,2,0,0,1,122,100Z"/><circle cx="116" cy="18" r="2"/><circle cx="108" cy="18" r="2"/><circle cx="100" cy="18" r="2"/><path d="M81.6,42.11l-36,7.28a2,2,0,0,0-1.6,2V76.56a2,2,0,0,0,1.6,2l36,7.37a1.81,1.81,0,0,0,.4,0,2,2,0,0,0,2-2V44.07a2,2,0,0,0-2.4-2ZM80,62H64V49.75l16-3.23ZM60,50.56V62H48V53ZM48,66H60V77.39L48,74.93ZM64,78.2V66H80V81.48Z"/></svg>